<?xml version="1.0" encoding="utf-8"?>
<svg id="master-artboard" viewBox="0 0 131.29165649414062 29.560102462768555" version="1.1" xmlns="http://www.w3.org/2000/svg" x="0px" y="0px" style="enable-background:new 0 0 336 235.2;" width="131.29165649414062px" height="29.560102462768555px"><defs><style id="ee-google-fonts">@import url(https://fonts.googleapis.com/css?family=Fredoka+One:400|Roboto:100,100italic,300,300italic,400,400italic,500,500italic,700,700italic,900,900italic);</style></defs><rect id="ee-background" x="0" y="0" width="131.29165649414062" height="29.560102462768555" style="fill: white; fill-opacity: 0; pointer-events: none;"/><path d="M 18.119693756103516 42.959999084472656 L 24.799694061279297 45.310001373291016 L 24.799694061279297 48.59000015258789 L 14.70969295501709 44.31999969482422 L 14.70969295501709 41.55000305175781 L 24.799694061279297 37.27000045776367 L 24.799694061279297 40.560001373291016 L 18.119693756103516 42.959999084472656 ZM 28.660083770751953 51.65999984741211 L 26.140085220336914 51.65999984741211 L 32.42008590698242 33.13999938964844 L 34.940086364746094 33.13999938964844 L 28.660083770751953 51.65999984741211 ZM 43.46452713012695 42.92000198364258 L 36.664527893066406 40.540000915527344 L 36.664527893066406 37.290000915527344 L 46.86452865600586 41.560001373291016 L 46.86452865600586 44.31999969482422 L 36.664527893066406 48.61000061035156 L 36.664527893066406 45.34000015258789 L 43.46452713012695 42.92000198364258 Z" transform="matrix(1.384559154510498, 0, 0, 1.384559154510498, -18.543704986572266, -43.92279052734375)" style="fill: rgb(163, 163, 163); white-space: pre; color: rgb(163, 163, 163);"/><path d="M 91.75715637207031 26.579999923706055 L 96.19715881347656 26.610000610351562 C 98.51715850830078 26.610000610351562 100.55715942382812 27.446666717529297 102.31715393066406 29.1200008392334 C 104.07715606689453 30.786666870117188 104.9571533203125 32.84000015258789 104.9571533203125 35.279998779296875 C 104.9571533203125 37.720001220703125 104.09716033935547 39.81333541870117 102.37715911865234 41.560001373291016 C 100.65715789794922 43.30666732788086 98.57048797607422 44.18000030517578 96.11715698242188 44.18000030517578 L 91.72715759277344 44.18000030517578 C 90.75382232666016 44.18000030517578 90.14715576171875 43.97999954223633 89.90715789794922 43.58000183105469 C 89.71382141113281 43.2400016784668 89.61715698242188 42.72666931152344 89.61715698242188 42.040000915527344 L 89.61715698242188 28.700000762939453 C 89.61715698242188 28.313335418701172 89.6304931640625 28.033334732055664 89.65715789794922 27.860000610351562 C 89.67715454101562 27.68000030517578 89.75048828125 27.470001220703125 89.87715911865234 27.23000144958496 C 90.10382080078125 26.796667098999023 90.7304916381836 26.579999923706055 91.75715637207031 26.579999923706055 M 96.19715881347656 39.93000030517578 C 97.34382629394531 39.93000030517578 98.38382720947266 39.5 99.31715393066406 38.63999938964844 C 100.24382781982422 37.78666687011719 100.70716094970703 36.71333312988281 100.70716094970703 35.42000198364258 C 100.70716094970703 34.12000274658203 100.25382232666016 33.03333282470703 99.34716033935547 32.15999984741211 C 98.44715881347656 31.2933349609375 97.38716125488281 30.860000610351562 96.16716003417969 30.860000610351562 L 93.86715698242188 30.860000610351562 L 93.86715698242188 39.93000030517578 L 96.19715881347656 39.93000030517578 ZM 114.77296447753906 26.39000129699707 C 117.13963317871094 26.39000129699707 119.19296264648438 27.246667861938477 120.9329605102539 28.96000099182129 C 122.67962646484375 30.6733341217041 123.55296325683594 32.796669006347656 123.55296325683594 35.33000183105469 C 123.55296325683594 37.87000274658203 122.7196273803711 40.029998779296875 121.05296325683594 41.810001373291016 C 119.39295959472656 43.5966682434082 117.34629821777344 44.4900016784668 114.9129638671875 44.4900016784668 C 112.47962951660156 44.4900016784668 110.4129638671875 43.61000061035156 108.71296691894531 41.85000228881836 C 107.00629425048828 40.09000015258789 106.15296173095703 37.99333572387695 106.15296173095703 35.560001373291016 C 106.15296173095703 34.233333587646484 106.39295959472656 32.9900016784668 106.87296295166016 31.830001831054688 C 107.35296630859375 30.670001983642578 107.99296569824219 29.696666717529297 108.79296112060547 28.90999984741211 C 109.59296417236328 28.130001068115234 110.5129623413086 27.513334274291992 111.55296325683594 27.060001373291016 C 112.59296417236328 26.61333465576172 113.66629791259766 26.39000129699707 114.77296447753906 26.39000129699707 M 110.40296173095703 35.44000244140625 C 110.40296173095703 35.44000244140625 110.40296173095703 35.796669006347656 110.40296173095703 36.51000213623047 C 110.40296173095703 37.22333526611328 110.86296081542969 38.02333450317383 111.78296661376953 38.90999984741211 C 112.70296478271484 39.796669006347656 113.72962951660156 40.2400016784668 114.86296081542969 40.2400016784668 C 116.00296020507812 40.2400016784668 117.02629852294922 39.80666732788086 117.9329605102539 38.94000244140625 C 118.84629821777344 38.08000183105469 119.30296325683594 36.92000198364258 119.30296325683594 35.459999084472656 C 119.30296325683594 34.00666809082031 118.84296417236328 32.84000015258789 117.92296600341797 31.96000099182129 C 117.00296020507812 31.080001831054688 115.9762954711914 30.639999389648438 114.84296417236328 30.639999389648438 C 113.70296478271484 30.639999389648438 112.67962646484375 31.08333396911621 111.77296447753906 31.970001220703125 C 110.85962677001953 32.856666564941406 110.40296173095703 34.013336181640625 110.40296173095703 35.44000244140625 ZM 143.81275939941406 27.280000686645508 C 143.93942260742188 27.520000457763672 144.01275634765625 27.73666763305664 144.0327606201172 27.93000030517578 C 144.05941772460938 28.123334884643555 144.07275390625 28.40333366394043 144.07275390625 28.770000457763672 L 144.07275390625 42.09000015258789 C 144.07275390625 43.19000244140625 143.76942443847656 43.836666107177734 143.16275024414062 44.03000259399414 C 142.85609436035156 44.130001068115234 142.47274780273438 44.18000030517578 142.01275634765625 44.18000030517578 C 141.54608154296875 44.18000030517578 141.17608642578125 44.13999938964844 140.9027557373047 44.060001373291016 C 140.62942504882812 43.97999954223633 140.42276000976562 43.88333511352539 140.2827606201172 43.77000045776367 C 140.13609313964844 43.65666580200195 140.0227508544922 43.496665954589844 139.9427490234375 43.290000915527344 C 139.86276245117188 43.016666412353516 139.82275390625 42.60000228881836 139.82275390625 42.040000915527344 L 139.82275390625 34 C 139.42276000976562 34.49333190917969 138.83941650390625 35.279998779296875 138.07275390625 36.36000061035156 C 137.30609130859375 37.44000244140625 136.81942749023438 38.116668701171875 136.61276245117188 38.38999938964844 C 136.39942932128906 38.663333892822266 136.2527618408203 38.85333251953125 136.17276000976562 38.959999084472656 C 136.09275817871094 39.060001373291016 135.89942932128906 39.20333480834961 135.59275817871094 39.38999938964844 C 135.2794189453125 39.56999969482422 134.9427490234375 39.65999984741211 134.582763671875 39.65999984741211 C 134.22274780273438 39.65999984741211 133.89276123046875 39.57666778564453 133.59275817871094 39.40999984741211 C 133.29942321777344 39.24333572387695 133.08941650390625 39.08000183105469 132.96275329589844 38.92000198364258 L 132.7727508544922 38.65999984741211 C 132.4527587890625 38.26000213623047 131.81942749023438 37.40666580200195 130.8727569580078 36.099998474121094 C 129.92608642578125 34.7933349609375 129.41275024414062 34.09333419799805 129.33274841308594 34 L 129.33274841308594 42.09000015258789 C 129.33274841308594 42.456668853759766 129.32275390625 42.733333587646484 129.30274963378906 42.92000198364258 C 129.27609252929688 43.10000228881836 129.1994171142578 43.3033332824707 129.07275390625 43.53000259399414 C 128.83274841308594 43.96333312988281 128.2094268798828 44.18000030517578 127.2027587890625 44.18000030517578 C 126.2227554321289 44.18000030517578 125.61275482177734 43.96333312988281 125.37275695800781 43.53000259399414 C 125.24608612060547 43.3033332824707 125.1727523803711 43.09333419799805 125.15275573730469 42.900001525878906 C 125.12609100341797 42.71333312988281 125.11275482177734 42.426666259765625 125.11275482177734 42.040000915527344 L 125.11275482177734 28.720001220703125 C 125.11275482177734 28.353334426879883 125.12609100341797 28.07666778564453 125.15275573730469 27.89000129699707 C 125.1727523803711 27.71000099182129 125.24608612060547 27.5 125.37275695800781 27.260000228881836 C 125.61275482177734 26.84000015258789 126.23942565917969 26.630001068115234 127.25275421142578 26.630001068115234 C 127.6794204711914 26.630001068115234 128.04942321777344 26.683334350585938 128.36276245117188 26.790000915527344 C 128.67608642578125 26.89000129699707 128.87942504882812 26.996667861938477 128.97276306152344 27.110000610351562 L 129.1227569580078 27.260000228881836 L 134.57275390625 34.40999984741211 C 137.29275512695312 30.810001373291016 139.10609436035156 28.433334350585938 140.01275634765625 27.280000686645508 C 140.2860870361328 26.846668243408203 140.93275451660156 26.630001068115234 141.9527587890625 26.630001068115234 C 142.96609497070312 26.630001068115234 143.58609008789062 26.846668243408203 143.81275939941406 27.280000686645508 ZM 162.1425323486328 39.42000198364258 C 162.88253784179688 39.92000198364258 163.41253662109375 40.279998779296875 163.73252868652344 40.5 C 164.3058624267578 40.93333435058594 164.592529296875 41.3466682434082 164.592529296875 41.7400016784668 C 164.592529296875 42.13333511352539 164.3525390625 42.68000030517578 163.87252807617188 43.380001068115234 C 163.3925323486328 44.086666107177734 162.90586853027344 44.44000244140625 162.41253662109375 44.44000244140625 C 162.10586547851562 44.44000244140625 161.63919067382812 44.22333526611328 161.0125274658203 43.790000915527344 C 160.93252563476562 43.74333572387695 160.70919799804688 43.59333419799805 160.342529296875 43.34000015258789 C 159.97586059570312 43.08000183105469 159.68919372558594 42.88666915893555 159.48252868652344 42.76000213623047 C 157.99586486816406 43.913333892822266 156.32252502441406 44.4900016784668 154.4625244140625 44.4900016784668 C 151.98252868652344 44.4900016784668 149.8925323486328 43.61000061035156 148.19253540039062 41.85000228881836 C 146.48587036132812 40.09000015258789 145.63253784179688 37.99333572387695 145.63253784179688 35.560001373291016 C 145.63253784179688 34.233333587646484 145.87252807617188 32.9900016784668 146.3525390625 31.830001831054688 C 146.83253479003906 30.670001983642578 147.4725341796875 29.696666717529297 148.2725372314453 28.90999984741211 C 149.07252502441406 28.130001068115234 149.99253845214844 27.513334274291992 151.03253173828125 27.060001373291016 C 152.07252502441406 26.61333465576172 153.14585876464844 26.39000129699707 154.25253295898438 26.39000129699707 C 156.61920166015625 26.39000129699707 158.6725311279297 27.246667861938477 160.41253662109375 28.96000099182129 C 162.15919494628906 30.6733341217041 163.03253173828125 32.84000015258789 163.03253173828125 35.459999084472656 C 163.03253173828125 36.7933349609375 162.73587036132812 38.11333465576172 162.1425323486328 39.42000198364258 M 149.88253784179688 35.44000244140625 C 149.88253784179688 35.44000244140625 149.88253784179688 35.796669006347656 149.88253784179688 36.51000213623047 C 149.88253784179688 37.22333526611328 150.342529296875 38.02333450317383 151.2625274658203 38.90999984741211 C 152.18252563476562 39.796669006347656 153.20919799804688 40.2400016784668 154.342529296875 40.2400016784668 C 155.48252868652344 40.2400016784668 156.505859375 39.80666732788086 157.41253662109375 38.94000244140625 C 158.32586669921875 38.08000183105469 158.78253173828125 36.92000198364258 158.78253173828125 35.459999084472656 C 158.78253173828125 34.00666809082031 158.32252502441406 32.84000015258789 157.40252685546875 31.96000099182129 C 156.48252868652344 31.080001831054688 155.45587158203125 30.639999389648438 154.32252502441406 30.639999389648438 C 153.18252563476562 30.639999389648438 152.15919494628906 31.08333396911621 151.25253295898438 31.970001220703125 C 150.33920288085938 32.856666564941406 149.88253784179688 34.013336181640625 149.88253784179688 35.44000244140625 ZM 170.1623077392578 40.650001525878906 L 176.6923065185547 40.650001525878906 C 177.21896362304688 40.650001525878906 177.602294921875 40.709999084472656 177.84230041503906 40.83000183105469 C 178.08230590820312 40.95000076293945 178.24229431152344 41.13666915893555 178.32229614257812 41.38999938964844 C 178.4022979736328 41.650001525878906 178.4423065185547 41.9900016784668 178.4423065185547 42.40999984741211 C 178.4423065185547 42.836666107177734 178.4022979736328 43.176666259765625 178.32229614257812 43.43000030517578 C 178.24229431152344 43.69000244140625 178.1056365966797 43.866668701171875 177.9123077392578 43.959999084472656 C 177.6056365966797 44.119998931884766 177.18896484375 44.20000076293945 176.6623077392578 44.20000076293945 L 168.02230834960938 44.20000076293945 C 166.9022979736328 44.20000076293945 166.24563598632812 43.89666748046875 166.05230712890625 43.290000915527344 C 165.95896911621094 43.03000259399414 165.9123077392578 42.619998931884766 165.9123077392578 42.060001373291016 L 165.9123077392578 28.720001220703125 C 165.9123077392578 28.353334426879883 165.92562866210938 28.07666778564453 165.95230102539062 27.89000129699707 C 165.97230529785156 27.71000099182129 166.04563903808594 27.5 166.17230224609375 27.260000228881836 C 166.3989715576172 26.82666778564453 167.025634765625 26.610000610351562 168.05230712890625 26.610000610351562 C 169.17230224609375 26.610000610351562 169.83563232421875 26.906667709350586 170.04229736328125 27.5 C 170.12229919433594 27.76666831970215 170.1623077392578 28.18000030517578 170.1623077392578 28.740001678466797 L 170.1623077392578 40.650001525878906 Z" transform="matrix(0.8767326474189758, 0, 0, 0.8767326474189758, -27.935853958129883, -19.48354721069336)" style="fill: rgb(82, 133, 198); white-space: pre; color: rgb(51, 51, 51);"/><path d="M 41.334171295166016 76.19999694824219 L 41.334171295166016 59.13999938964844 L 46.584171295166016 59.13999938964844 C 48.084171295166016 59.13999938964844 49.42750549316406 59.476661682128906 50.61417007446289 60.14999771118164 C 51.79417037963867 60.82332992553711 52.717506408691406 61.783329010009766 53.38417053222656 63.029998779296875 C 54.050838470458984 64.27666473388672 54.38417053222656 65.69332885742188 54.38417053222656 67.27999877929688 L 54.38417053222656 68.06999969482422 C 54.38417053222656 69.65666198730469 54.05750274658203 71.06666564941406 53.404170989990234 72.29999542236328 C 52.75083923339844 73.53333282470703 51.83083724975586 74.48999786376953 50.64417266845703 75.16999816894531 C 49.45750427246094 75.8499984741211 48.11750411987305 76.19332885742188 46.62417221069336 76.19999694824219 L 41.334171295166016 76.19999694824219 M 44.85417175292969 61.98999786376953 L 44.85417175292969 73.37999725341797 L 46.554168701171875 73.37999725341797 C 47.92750549316406 73.37999725341797 48.97750473022461 72.93000030517578 49.70417022705078 72.02999877929688 C 50.43083953857422 71.12999725341797 50.800838470458984 69.84333038330078 50.814170837402344 68.16999816894531 L 50.814170837402344 67.2699966430664 C 50.814170837402344 65.53666687011719 50.45750427246094 64.22332763671875 49.744171142578125 63.32999801635742 C 49.024169921875 62.43666458129883 47.9708366394043 61.98999786376953 46.584171295166016 61.98999786376953 L 44.85417175292969 61.98999786376953 ZM 70.9484634399414 68.05999755859375 C 70.9484634399414 69.73332977294922 70.65179443359375 71.20333099365234 70.05846405029297 72.4699935913086 C 69.46512603759766 73.73666381835938 68.61512756347656 74.71333312988281 67.50846099853516 75.39999389648438 C 66.40179443359375 76.08666229248047 65.1351318359375 76.43000030517578 63.70846176147461 76.43000030517578 C 62.295127868652344 76.43000030517578 61.031795501708984 76.08999633789062 59.91846466064453 75.40999603271484 C 58.81179428100586 74.73666381835938 57.95179748535156 73.76666259765625 57.338462829589844 72.5 C 56.73179626464844 71.23999786376953 56.42512893676758 69.78999328613281 56.418460845947266 68.14999389648438 L 56.418460845947266 67.30999755859375 C 56.418460845947266 65.62999725341797 56.72179412841797 64.14999389648438 57.328460693359375 62.8699951171875 C 57.928462982177734 61.589996337890625 58.781795501708984 60.6099967956543 59.88846206665039 59.929996490478516 C 60.9951286315918 59.24333190917969 62.258460998535156 58.89999771118164 63.678462982177734 58.89999771118164 C 65.10513305664062 58.89999771118164 66.36846160888672 59.24333190917969 67.46846008300781 59.929996490478516 C 68.57512664794922 60.6099967956543 69.43179321289062 61.589996337890625 70.03845977783203 62.8699951171875 C 70.64512634277344 64.14999389648438 70.9484634399414 65.62332916259766 70.9484634399414 67.28999328613281 L 70.9484634399414 68.05999755859375 M 67.38845825195312 67.27999877929688 C 67.38845825195312 65.49333190917969 67.06846618652344 64.13333129882812 66.428466796875 63.19999694824219 C 65.78179931640625 62.27333068847656 64.86512756347656 61.80999755859375 63.678462982177734 61.80999755859375 C 62.49846267700195 61.80999755859375 61.588462829589844 62.269996643066406 60.948463439941406 63.18999481201172 C 60.30846405029297 64.10333251953125 59.985130310058594 65.44666290283203 59.97846221923828 67.22000122070312 L 59.97846221923828 68.05999755859375 C 59.97846221923828 69.79999542236328 60.2984619140625 71.14999389648438 60.93846130371094 72.11000061035156 C 61.578460693359375 73.06999969482422 62.50179672241211 73.54999542236328 63.70846176147461 73.54999542236328 C 64.88845825195312 73.54999542236328 65.79512786865234 73.08666229248047 66.428466796875 72.15999603271484 C 67.05513000488281 71.23332977294922 67.37512969970703 69.88333129882812 67.38845825195312 68.11000061035156 L 67.38845825195312 67.27999877929688 ZM 78.09520721435547 59.13999938964844 L 82.47520446777344 71.50999450683594 L 86.835205078125 59.13999938964844 L 91.4552001953125 59.13999938964844 L 91.4552001953125 76.19999694824219 L 87.92520141601562 76.19999694824219 L 87.92520141601562 71.53999328613281 L 88.27520751953125 63.48999786376953 L 83.67520141601562 76.19999694824219 L 81.25520324707031 76.19999694824219 L 76.66520690917969 63.499996185302734 L 77.01520538330078 71.53999328613281 L 77.01520538330078 76.19999694824219 L 73.49520111083984 76.19999694824219 L 73.49520111083984 59.13999938964844 L 78.09520721435547 59.13999938964844 ZM 114.48939514160156 68.05999755859375 C 114.48939514160156 69.65332794189453 114.2293930053711 71.03666687011719 113.70938873291016 72.20999908447266 C 113.19606018066406 73.38333129882812 112.48272705078125 74.32666015625 111.56938934326172 75.03999328613281 L 114.3993911743164 77.2699966430664 L 112.16938781738281 79.25 L 108.52938842773438 76.32999420166016 C 108.11605834960938 76.39665985107422 107.6860580444336 76.43000030517578 107.23939514160156 76.43000030517578 C 105.82605743408203 76.43000030517578 104.56605529785156 76.08999633789062 103.45938873291016 75.40999603271484 C 102.34605407714844 74.73666381835938 101.4860610961914 73.76666259765625 100.87939453125 72.5 C 100.27272033691406 71.23999786376953 99.96272277832031 69.78999328613281 99.94939422607422 68.14999389648438 L 99.94939422607422 67.30999755859375 C 99.94939422607422 65.62999725341797 100.25272369384766 64.14999389648438 100.85939025878906 62.8699951171875 C 101.46605682373047 61.589996337890625 102.32272338867188 60.6099967956543 103.42938995361328 59.929996490478516 C 104.53605651855469 59.24333190917969 105.79939270019531 58.89999771118164 107.21939086914062 58.89999771118164 C 108.63938903808594 58.89999771118164 109.90272521972656 59.24333190917969 111.00939178466797 59.929996490478516 C 112.11605834960938 60.6099967956543 112.97272491455078 61.589996337890625 113.57939147949219 62.8699951171875 C 114.1860580444336 64.14999389648438 114.48939514160156 65.62332916259766 114.48939514160156 67.28999328613281 L 114.48939514160156 68.05999755859375 M 110.91938781738281 67.27999877929688 C 110.91938781738281 65.49333190917969 110.5993881225586 64.13333129882812 109.95938873291016 63.19999694824219 C 109.31938934326172 62.27333068847656 108.40605926513672 61.80999755859375 107.21939086914062 61.80999755859375 C 106.03939056396484 61.80999755859375 105.12939453125 62.269996643066406 104.48938751220703 63.18999481201172 C 103.8493881225586 64.10333251953125 103.52605438232422 65.44666290283203 103.51939392089844 67.22000122070312 L 103.51939392089844 68.05999755859375 C 103.51939392089844 69.79999542236328 103.83939361572266 71.14999389648438 104.4793930053711 72.11000061035156 C 105.11939239501953 73.06999969482422 106.03939056396484 73.54999542236328 107.23939514160156 73.54999542236328 C 108.41938781738281 73.54999542236328 109.32605743408203 73.08666229248047 109.95938873291016 72.15999603271484 C 110.59272766113281 71.23332977294922 110.91272735595703 69.88333129882812 110.91938781738281 68.11000061035156 L 110.91938781738281 67.27999877929688 ZM 124.4261245727539 74.90999603271484 C 123.59278869628906 75.92333221435547 122.43946075439453 76.43000030517578 120.96612548828125 76.43000030517578 C 119.60612487792969 76.43000030517578 118.56612396240234 76.03999328613281 117.84612274169922 75.25999450683594 C 117.1327896118164 74.47999572753906 116.76945495605469 73.33666229248047 116.7561264038086 71.82999420166016 L 116.7561264038086 63.519996643066406 L 120.14612579345703 63.519996643066406 L 120.14612579345703 71.70999908447266 C 120.14612579345703 73.02999877929688 120.74612426757812 73.68999481201172 121.94612121582031 73.68999481201172 C 123.09278869628906 73.68999481201172 123.8827896118164 73.29332733154297 124.31612396240234 72.5 L 124.31612396240234 63.519996643066406 L 127.71612548828125 63.519996643066406 L 127.71612548828125 76.19999694824219 L 124.526123046875 76.19999694824219 L 124.4261245727539 74.90999603271484 ZM 136.10292053222656 76.43000030517578 C 134.242919921875 76.43000030517578 132.72958374023438 75.86000061035156 131.56292724609375 74.7199935913086 C 130.38958740234375 73.57999420166016 129.80291748046875 72.05999755859375 129.80291748046875 70.15999603271484 L 129.80291748046875 69.83999633789062 C 129.80291748046875 68.56666564941406 130.04959106445312 67.42666625976562 130.5429229736328 66.41999816894531 C 131.0362548828125 65.413330078125 131.73292541503906 64.63999938964844 132.63291931152344 64.0999984741211 C 133.53958129882812 63.55999755859375 134.569580078125 63.28999710083008 135.72291564941406 63.28999710083008 C 137.4562530517578 63.28999710083008 138.8229217529297 63.83666229248047 139.8229217529297 64.92999267578125 C 140.81625366210938 66.02333068847656 141.31292724609375 67.57333374023438 141.31292724609375 69.57999420166016 L 141.31292724609375 70.95999908447266 L 133.242919921875 70.95999908447266 C 133.34959411621094 71.78666687011719 133.67958068847656 72.44999694824219 134.23292541503906 72.94999694824219 C 134.7795867919922 73.44999694824219 135.47625732421875 73.69999694824219 136.3229217529297 73.69999694824219 C 137.6295928955078 73.69999694824219 138.6495819091797 73.22999572753906 139.38291931152344 72.28999328613281 L 141.0429229736328 74.14999389648438 C 140.5362548828125 74.8699951171875 139.84959411621094 75.43000030517578 138.98292541503906 75.82999420166016 C 138.1162567138672 76.22999572753906 137.15625 76.43000030517578 136.10292053222656 76.43000030517578 M 135.71292114257812 66.02999877929688 C 135.03958129882812 66.02999877929688 134.4962615966797 66.25666046142578 134.08291625976562 66.70999908447266 C 133.6629180908203 67.163330078125 133.39291381835938 67.80999755859375 133.27291870117188 68.64999389648438 L 137.98292541503906 68.64999389648438 L 137.98292541503906 68.37999725341797 C 137.96958923339844 67.63333129882812 137.76625061035156 67.05332946777344 137.3729248046875 66.63999938964844 C 136.9862518310547 66.23332977294922 136.43292236328125 66.02999877929688 135.71292114257812 66.02999877929688 ZM 150.36276245117188 66.69999694824219 C 149.89610290527344 66.63333129882812 149.48944091796875 66.5999984741211 149.1427764892578 66.5999984741211 C 147.86276245117188 66.5999984741211 147.02276611328125 67.03333282470703 146.62277221679688 67.89999389648438 L 146.62277221679688 76.19999694824219 L 143.23277282714844 76.19999694824219 L 143.23277282714844 63.519996643066406 L 146.43276977539062 63.519996643066406 L 146.52276611328125 65.02999877929688 C 147.20277404785156 63.8699951171875 148.14610290527344 63.28999710083008 149.35276794433594 63.28999710083008 C 149.72610473632812 63.28999710083008 150.07611083984375 63.339996337890625 150.40277099609375 63.43999481201172 L 150.36276245117188 66.69999694824219 ZM 156.9356689453125 71.40999603271484 L 159.2756805419922 63.519996643066406 L 162.90567016601562 63.519996643066406 L 157.80567932128906 78.16999816894531 L 157.5256805419922 78.83999633789062 C 156.7723388671875 80.49333190917969 155.5223388671875 81.31999969482422 153.7756805419922 81.31999969482422 C 153.2823486328125 81.31999969482422 152.7823486328125 81.24666595458984 152.2756805419922 81.0999984741211 L 152.2756805419922 78.52999877929688 L 152.79566955566406 78.53999328613281 C 153.4356689453125 78.53999328613281 153.91233825683594 78.44332885742188 154.22567749023438 78.25 C 154.54566955566406 78.0566635131836 154.79566955566406 77.73332977294922 154.97567749023438 77.27999877929688 L 155.37567138671875 76.23999786376953 L 150.9356689453125 63.519996643066406 L 154.57566833496094 63.519996643066406 L 156.9356689453125 71.40999603271484 ZM 173.95521545410156 73.37999725341797 L 181.41522216796875 73.37999725341797 L 181.41522216796875 76.19999694824219 L 170.4352264404297 76.19999694824219 L 170.4352264404297 59.13999938964844 L 173.95521545410156 59.13999938964844 L 173.95521545410156 73.37999725341797 ZM 190.55850219726562 76.19999694824219 C 190.3985137939453 75.8933334350586 190.28517150878906 75.5133285522461 190.218505859375 75.05999755859375 C 189.3985137939453 75.97332763671875 188.33184814453125 76.43000030517578 187.0185089111328 76.43000030517578 C 185.77850341796875 76.43000030517578 184.74850463867188 76.07333374023438 183.9285125732422 75.36000061035156 C 183.11517333984375 74.63999938964844 182.70851135253906 73.73332977294922 182.70851135253906 72.63999938964844 C 182.70851135253906 71.29332733154297 183.20516967773438 70.25999450683594 184.19850158691406 69.53999328613281 C 185.19850158691406 68.82666015625 186.6385040283203 68.46333312988281 188.5185089111328 68.44999694824219 L 190.07850646972656 68.44999694824219 L 190.07850646972656 67.72999572753906 C 190.07850646972656 67.1433334350586 189.9285125732422 66.67333221435547 189.62850952148438 66.31999969482422 C 189.32850646972656 65.96665954589844 188.85183715820312 65.78999328613281 188.19850158691406 65.78999328613281 C 187.6318359375 65.78999328613281 187.1851806640625 65.92666625976562 186.85850524902344 66.19999694824219 C 186.53184509277344 66.47332763671875 186.36851501464844 66.8499984741211 186.36851501464844 67.32999420166016 L 182.98851013183594 67.32999420166016 C 182.98851013183594 66.59666442871094 183.21517944335938 65.91666412353516 183.6685028076172 65.28999328613281 C 184.12184143066406 64.663330078125 184.7618408203125 64.17333221435547 185.5885009765625 63.81999588012695 C 186.41517639160156 63.4666633605957 187.3451690673828 63.28999710083008 188.37850952148438 63.28999710083008 C 189.93850708007812 63.28999710083008 191.1785125732422 63.679996490478516 192.0985107421875 64.45999908447266 C 193.0185089111328 65.24666595458984 193.478515625 66.3499984741211 193.478515625 67.7699966430664 L 193.478515625 73.2699966430664 C 193.48516845703125 74.4699935913086 193.65184020996094 75.37999725341797 193.978515625 76 L 193.978515625 76.19999694824219 L 190.55850219726562 76.19999694824219 M 187.75851440429688 73.83999633789062 C 188.25851440429688 73.83999633789062 188.718505859375 73.72999572753906 189.1385040283203 73.50999450683594 C 189.55850219726562 73.28999328613281 189.87184143066406 72.98999786376953 190.07850646972656 72.61000061035156 L 190.07850646972656 70.43000030517578 L 188.80850219726562 70.43000030517578 C 187.11517333984375 70.43000030517578 186.21517944335938 71.01666259765625 186.10850524902344 72.18999481201172 L 186.0885009765625 72.38999938964844 C 186.0885009765625 72.80999755859375 186.23851013183594 73.15666198730469 186.53851318359375 73.43000030517578 C 186.83184814453125 73.70333099365234 187.23851013183594 73.83999633789062 187.75851440429688 73.83999633789062 ZM 199.1929168701172 63.519996643066406 L 199.2929229736328 64.98999786376953 C 200.1995849609375 63.85666275024414 201.416259765625 63.28999710083008 202.9429168701172 63.28999710083008 C 204.2829132080078 63.28999710083008 205.2829132080078 63.68333053588867 205.9429168701172 64.47000122070312 C 206.59625244140625 65.25666046142578 206.93292236328125 66.43666076660156 206.95291137695312 68.00999450683594 L 206.95291137695312 76.19999694824219 L 203.5629119873047 76.19999694824219 L 203.5629119873047 68.08999633789062 C 203.5629119873047 67.3699951171875 203.40625 66.8499984741211 203.09292602539062 66.52999877929688 C 202.7795867919922 66.20333099365234 202.25958251953125 66.03999328613281 201.5329132080078 66.03999328613281 C 200.57958984375 66.03999328613281 199.8662567138672 66.44666290283203 199.39291381835938 67.25999450683594 L 199.39291381835938 76.19999694824219 L 196.00291442871094 76.19999694824219 L 196.00291442871094 63.519996643066406 L 199.1929168701172 63.519996643066406 ZM 209.02142333984375 69.7699966430664 C 209.02142333984375 67.82333374023438 209.48475646972656 66.25666046142578 210.4114227294922 65.06999969482422 C 211.3380889892578 63.883331298828125 212.5847625732422 63.28999710083008 214.15142822265625 63.28999710083008 C 215.5447540283203 63.28999710083008 216.6280975341797 63.76666259765625 217.40142822265625 64.72000122070312 L 217.5414276123047 63.519996643066406 L 220.61141967773438 63.519996643066406 L 220.61141967773438 75.77999877929688 C 220.61141967773438 76.88666534423828 220.35809326171875 77.8499984741211 219.85142517089844 78.66999816894531 C 219.35142517089844 79.48999786376953 218.64476013183594 80.11666107177734 217.73143005371094 80.54999542236328 C 216.81143188476562 80.9766616821289 215.73809814453125 81.18999481201172 214.5114288330078 81.18999481201172 C 213.5847625732422 81.18999481201172 212.68142700195312 81.00666046142578 211.80142211914062 80.63999938964844 C 210.91476440429688 80.26666259765625 210.24476623535156 79.78666687011719 209.7914276123047 79.19999694824219 L 211.2914276123047 77.13999938964844 C 212.13809204101562 78.08666229248047 213.1614227294922 78.55999755859375 214.36141967773438 78.55999755859375 C 215.2614288330078 78.55999755859375 215.96142578125 78.31666564941406 216.46142578125 77.82999420166016 C 216.96142578125 77.3499984741211 217.21142578125 76.66999816894531 217.21142578125 75.78999328613281 L 217.21142578125 75.11000061035156 C 216.43142700195312 75.98999786376953 215.40475463867188 76.43000030517578 214.1314239501953 76.43000030517578 C 212.60476684570312 76.43000030517578 211.37142944335938 75.83666229248047 210.43142700195312 74.64999389648438 C 209.49142456054688 73.4566650390625 209.02142333984375 71.87666320800781 209.02142333984375 69.90999603271484 L 209.02142333984375 69.7699966430664 M 212.4114227294922 70.00999450683594 C 212.4114227294922 71.163330078125 212.64141845703125 72.0633316040039 213.10142517089844 72.70999908447266 C 213.56143188476562 73.36332702636719 214.19476318359375 73.68999481201172 215.0014190673828 73.68999481201172 C 216.02809143066406 73.68999481201172 216.76475524902344 73.30332946777344 217.21142578125 72.52999877929688 L 217.21142578125 67.19999694824219 C 216.75808715820312 66.42666625976562 216.02809143066406 66.03999328613281 215.02142333984375 66.03999328613281 C 214.20809936523438 66.03999328613281 213.56808471679688 66.37332916259766 213.10142517089844 67.03999328613281 C 212.64141845703125 67.69999694824219 212.4114227294922 68.68999481201172 212.4114227294922 70.00999450683594 ZM 230.7976837158203 74.90999603271484 C 229.96435546875 75.92333221435547 228.81101989746094 76.43000030517578 227.33767700195312 76.43000030517578 C 225.97769165039062 76.43000030517578 224.93768310546875 76.03999328613281 224.21768188476562 75.25999450683594 C 223.5043487548828 74.47999572753906 223.14102172851562 73.33666229248047 223.127685546875 71.82999420166016 L 223.127685546875 63.519996643066406 L 226.51768493652344 63.519996643066406 L 226.51768493652344 71.70999908447266 C 226.51768493652344 73.02999877929688 227.11769104003906 73.68999481201172 228.31768798828125 73.68999481201172 C 229.46435546875 73.68999481201172 230.2543487548828 73.29332733154297 230.68768310546875 72.5 L 230.68768310546875 63.519996643066406 L 234.08767700195312 63.519996643066406 L 234.08767700195312 76.19999694824219 L 230.89768981933594 76.19999694824219 L 230.7976837158203 74.90999603271484 ZM 243.98446655273438 76.19999694824219 C 243.82447814941406 75.8933334350586 243.7111358642578 75.5133285522461 243.64447021484375 75.05999755859375 C 242.82447814941406 75.97332763671875 241.7578125 76.43000030517578 240.44447326660156 76.43000030517578 C 239.2044677734375 76.43000030517578 238.17446899414062 76.07333374023438 237.35447692871094 75.36000061035156 C 236.5411376953125 74.63999938964844 236.1344757080078 73.73332977294922 236.1344757080078 72.63999938964844 C 236.1344757080078 71.29332733154297 236.63113403320312 70.25999450683594 237.6244659423828 69.53999328613281 C 238.6244659423828 68.82666015625 240.06446838378906 68.46333312988281 241.94447326660156 68.44999694824219 L 243.5044708251953 68.44999694824219 L 243.5044708251953 67.72999572753906 C 243.5044708251953 67.1433334350586 243.35447692871094 66.67333221435547 243.05447387695312 66.31999969482422 C 242.7544708251953 65.96665954589844 242.27780151367188 65.78999328613281 241.6244659423828 65.78999328613281 C 241.05780029296875 65.78999328613281 240.61114501953125 65.92666625976562 240.2844696044922 66.19999694824219 C 239.9578094482422 66.47332763671875 239.7944793701172 66.8499984741211 239.7944793701172 67.32999420166016 L 236.4144744873047 67.32999420166016 C 236.4144744873047 66.59666442871094 236.64114379882812 65.91666412353516 237.09446716308594 65.28999328613281 C 237.5478057861328 64.663330078125 238.18780517578125 64.17333221435547 239.01446533203125 63.81999588012695 C 239.8411407470703 63.4666633605957 240.77113342285156 63.28999710083008 241.80447387695312 63.28999710083008 C 243.36447143554688 63.28999710083008 244.60447692871094 63.679996490478516 245.52447509765625 64.45999908447266 C 246.44447326660156 65.24666595458984 246.90447998046875 66.3499984741211 246.90447998046875 67.7699966430664 L 246.90447998046875 73.2699966430664 C 246.9111328125 74.4699935913086 247.0778045654297 75.37999725341797 247.40447998046875 76 L 247.40447998046875 76.19999694824219 L 243.98446655273438 76.19999694824219 M 241.18447875976562 73.83999633789062 C 241.68447875976562 73.83999633789062 242.14447021484375 73.72999572753906 242.56446838378906 73.50999450683594 C 242.98446655273438 73.28999328613281 243.2978057861328 72.98999786376953 243.5044708251953 72.61000061035156 L 243.5044708251953 70.43000030517578 L 242.23446655273438 70.43000030517578 C 240.5411376953125 70.43000030517578 239.64114379882812 71.01666259765625 239.5344696044922 72.18999481201172 L 239.51446533203125 72.38999938964844 C 239.51446533203125 72.80999755859375 239.6644744873047 73.15666198730469 239.9644775390625 73.43000030517578 C 240.2578125 73.70333099365234 240.6644744873047 73.83999633789062 241.18447875976562 73.83999633789062 ZM 249.00888061523438 69.7699966430664 C 249.00888061523438 67.82333374023438 249.4722137451172 66.25666046142578 250.3988800048828 65.06999969482422 C 251.32554626464844 63.883331298828125 252.5722198486328 63.28999710083008 254.13888549804688 63.28999710083008 C 255.53221130371094 63.28999710083008 256.61553955078125 63.76666259765625 257.3888854980469 64.72000122070312 L 257.52886962890625 63.519996643066406 L 260.598876953125 63.519996643066406 L 260.598876953125 75.77999877929688 C 260.598876953125 76.88666534423828 260.3455505371094 77.8499984741211 259.8388977050781 78.66999816894531 C 259.3388977050781 79.48999786376953 258.6322021484375 80.11666107177734 257.7188720703125 80.54999542236328 C 256.79888916015625 80.9766616821289 255.72555541992188 81.18999481201172 254.49888610839844 81.18999481201172 C 253.5722198486328 81.18999481201172 252.66888427734375 81.00666046142578 251.78887939453125 80.63999938964844 C 250.9022216796875 80.26666259765625 250.2322235107422 79.78666687011719 249.7788848876953 79.19999694824219 L 251.2788848876953 77.13999938964844 C 252.12554931640625 78.08666229248047 253.1488800048828 78.55999755859375 254.348876953125 78.55999755859375 C 255.24888610839844 78.55999755859375 255.94888305664062 78.31666564941406 256.4488830566406 77.82999420166016 C 256.9488830566406 77.3499984741211 257.1988830566406 76.66999816894531 257.1988830566406 75.78999328613281 L 257.1988830566406 75.11000061035156 C 256.41888427734375 75.98999786376953 255.3922119140625 76.43000030517578 254.11888122558594 76.43000030517578 C 252.59222412109375 76.43000030517578 251.35888671875 75.83666229248047 250.41888427734375 74.64999389648438 C 249.4788818359375 73.4566650390625 249.00888061523438 71.87666320800781 249.00888061523438 69.90999603271484 L 249.00888061523438 69.7699966430664 M 252.3988800048828 70.00999450683594 C 252.3988800048828 71.163330078125 252.62887573242188 72.0633316040039 253.08888244628906 72.70999908447266 C 253.54888916015625 73.36332702636719 254.18222045898438 73.68999481201172 254.98887634277344 73.68999481201172 C 256.01556396484375 73.68999481201172 256.7522277832031 73.30332946777344 257.1988830566406 72.52999877929688 L 257.1988830566406 67.19999694824219 C 256.74554443359375 66.42666625976562 256.01556396484375 66.03999328613281 255.00888061523438 66.03999328613281 C 254.195556640625 66.03999328613281 253.5555419921875 66.37332916259766 253.08888244628906 67.03999328613281 C 252.62887573242188 67.69999694824219 252.3988800048828 68.68999481201172 252.3988800048828 70.00999450683594 ZM 269.03515625 76.43000030517578 C 267.1751403808594 76.43000030517578 265.66180419921875 75.86000061035156 264.4951477050781 74.7199935913086 C 263.3218078613281 73.57999420166016 262.7351379394531 72.05999755859375 262.7351379394531 70.15999603271484 L 262.7351379394531 69.83999633789062 C 262.7351379394531 68.56666564941406 262.9818115234375 67.42666625976562 263.4751281738281 66.41999816894531 C 263.9684753417969 65.413330078125 264.6651306152344 64.63999938964844 265.5651550292969 64.0999984741211 C 266.4718017578125 63.55999755859375 267.5018005371094 63.28999710083008 268.6551513671875 63.28999710083008 C 270.38848876953125 63.28999710083008 271.755126953125 63.83666229248047 272.755126953125 64.92999267578125 C 273.74847412109375 66.02333068847656 274.2451477050781 67.57333374023438 274.2451477050781 69.57999420166016 L 274.2451477050781 70.95999908447266 L 266.1751403808594 70.95999908447266 C 266.28179931640625 71.78666687011719 266.61181640625 72.44999694824219 267.1651306152344 72.94999694824219 C 267.7118225097656 73.44999694824219 268.4084777832031 73.69999694824219 269.255126953125 73.69999694824219 C 270.5617980957031 73.69999694824219 271.5818176269531 73.22999572753906 272.3151550292969 72.28999328613281 L 273.9751281738281 74.14999389648438 C 273.4684753417969 74.8699951171875 272.78179931640625 75.43000030517578 271.9151306152344 75.82999420166016 C 271.0484619140625 76.22999572753906 270.0884704589844 76.43000030517578 269.03515625 76.43000030517578 M 268.6451416015625 66.02999877929688 C 267.9718017578125 66.02999877929688 267.428466796875 66.25666046142578 267.01513671875 66.70999908447266 C 266.59515380859375 67.163330078125 266.32513427734375 67.80999755859375 266.20513916015625 68.64999389648438 L 270.9151306152344 68.64999389648438 L 270.9151306152344 68.37999725341797 C 270.90179443359375 67.63333129882812 270.698486328125 67.05332946777344 270.3051452636719 66.63999938964844 C 269.9184875488281 66.23332977294922 269.3651428222656 66.02999877929688 268.6451416015625 66.02999877929688 Z" transform="matrix(0.33663395047187805, 0, 0, 0.33663395047187805, 36.63656234741211, 1.324220895767212)" style="fill: rgb(82, 133, 198); white-space: pre; color: rgb(51, 51, 51);"/></svg>